<?xml version="1.0" encoding="utf-8"?>
<!-- Generator: Adobe Illustrator 21.0.2, SVG Export Plug-In . SVG Version: 6.00 Build 0)  -->
<svg version="1.1" id="Layer_1" xmlns="http://www.w3.org/2000/svg" xmlns:xlink="http://www.w3.org/1999/xlink" x="0px" y="0px"
	 viewBox="0 0 300.2 85" style="enable-background:new 0 0 300.2 85;" xml:space="preserve">
<style type="text/css">
	.st0{fill:#FFFFFF;}
</style>
<g>
	<path class="st0" d="M251.1,38.8c-2,1.2-4.3,1.9-6.6,1.9c-7.1,0-12.9-5.8-12.9-12.9s5.8-12.9,12.9-12.9c2.4,0,4.6,0.7,6.6,1.9l0,0
		l4.4-4.4c-3.2-2.3-7.1-3.6-11-3.6c-10.5,0-19.1,8.6-19.1,19.1S234,47,244.5,47c4,0,7.8-1.3,11-3.7L251.1,38.8z"/>
	<path class="st0" d="M69.2,38.4c-1.9-1.9-4.1-3.3-6.7-4.4c-2.6-1.1-5.3-1.6-8.2-1.6c-3.4,0-6.6,0.7-9.4,2.2
		c-2.8,1.4-5.2,3.4-7.3,5.9c-2-2.5-4.4-4.4-7.2-5.9c-2.8-1.4-6-2.2-9.3-2.2c-2.9,0-5.6,0.5-8.2,1.6s-4.8,2.6-6.7,4.4
		c-1.9,1.9-3.4,4-4.5,6.5S0,50.1,0,52.9v32h9v-32c0-1.6,0.3-3.2,0.9-4.6c0.6-1.4,1.5-2.6,2.6-3.7s2.4-1.9,3.8-2.5
		c1.5-0.6,3.1-0.9,4.7-0.9c1.7,0,3.2,0.3,4.7,0.9c1.4,0.6,2.7,1.5,3.8,2.5c1.1,1.1,2,2.3,2.6,3.7c0.6,1.4,0.9,2.9,0.9,4.6v32h9v-32
		c0-1.6,0.3-3.2,0.9-4.6c0.6-1.4,1.5-2.6,2.6-3.7c1.1-1.1,2.4-1.9,3.8-2.5c1.5-0.6,3.1-0.9,4.7-0.9c1.7,0,3.2,0.3,4.7,0.9
		c1.4,0.6,2.7,1.5,3.8,2.5c1.1,1.1,1.9,2.3,2.6,3.7c0.6,1.4,0.9,2.9,0.9,4.6v32h9.1v-32c0-2.8-0.6-5.5-1.7-8
		C72.6,42.4,71.1,40.2,69.2,38.4z"/>
	<path class="st0" d="M153.4,70.8V10.1h-8.7v60.7c0,1.9,0.4,3.8,1.3,5.5c0.9,1.7,2,3.2,3.5,4.5s3.2,2.3,5.1,3c2,0.7,4.1,1.1,6.3,1.1
		v-8.6c-2.1,0-3.8-0.5-5.3-1.6C154.2,73.6,153.4,72.3,153.4,70.8z"/>
	<path class="st0" d="M207.1,10.1V39c-2.4-2.1-5.2-3.7-8.2-4.9c-3.1-1.2-6.4-1.8-9.9-1.8c-3.7,0-7.2,0.7-10.4,2.1
		c-3.2,1.4-6.1,3.3-8.5,5.7s-4.4,5.2-5.8,8.4c-1.4,3.2-2.1,6.6-2.1,10.3c0,3.6,0.7,7,2.1,10.2c1.4,3.2,3.3,6,5.8,8.3
		c2.4,2.4,5.3,4.2,8.5,5.6S185.3,85,189,85s7.2-0.7,10.5-2.1s6.1-3.2,8.5-5.6s4.3-5.1,5.7-8.3c1.4-3.2,2.1-6.6,2.1-10.2V10.1H207.1z
		 M205.7,65.5c-0.9,2.2-2.2,4-3.9,5.6s-3.6,2.8-5.8,3.8c-2.2,0.9-4.5,1.4-7,1.4s-4.8-0.5-7-1.4s-4.1-2.2-5.7-3.8
		c-1.6-1.6-2.9-3.4-3.9-5.6c-1-2.2-1.4-4.4-1.4-6.9c0-2.4,0.5-4.7,1.4-6.9c1-2.2,2.3-4,3.9-5.7c1.6-1.6,3.5-2.9,5.7-3.8
		c2.2-0.9,4.5-1.4,7-1.4s4.8,0.5,7,1.4s4.1,2.2,5.8,3.8s2.9,3.5,3.9,5.7c0.9,2.2,1.4,4.4,1.4,6.9S206.6,63.3,205.7,65.5z"/>
	<path class="st0" d="M129.5,39.9c-2.4-2.3-5.2-4.2-8.5-5.6c-3.3-1.4-6.8-2.1-10.5-2.1s-7.2,0.7-10.5,2.1c-3.3,1.4-6.1,3.2-8.6,5.6
		C89,42.3,87,45,85.6,48.3c-1.4,3.2-2.1,6.7-2.1,10.3s0.7,7,2.1,10.2s3.3,5.9,5.8,8.3c2.4,2.4,5.3,4.3,8.6,5.7
		c3.3,1.4,6.8,2.1,10.5,2.1c0.3,0,0.7-0.1,1-0.1v-8.6c-0.3,0-0.7,0.1-1,0.1c-2.1,0-4.1-0.3-6-1s-3.6-1.6-5.1-2.8
		c-1.5-1.2-2.8-2.6-3.9-4.2s-1.9-3.4-2.4-5.3h44c0.1-1.3,0.2-2.2,0.2-2.7s0-1,0-1.5c0-3.6-0.7-7.1-2.1-10.3
		C133.8,45.1,131.9,42.3,129.5,39.9z M93.1,54.3c0.5-1.9,1.3-3.6,2.4-5.3c1.1-1.6,2.4-3.1,3.9-4.2c1.5-1.2,3.2-2.1,5.1-2.8
		s3.9-1,6-1s4.1,0.3,6,1s3.6,1.6,5.1,2.8s2.8,2.6,3.9,4.2c1.1,1.6,1.9,3.4,2.4,5.3H93.1z"/>
	<g>
		<path class="st0" d="M294.5,0.3h-1.4V0h3v0.3h-1.4v3.5h-0.3L294.5,0.3L294.5,0.3z"/>
		<path class="st0" d="M300,0.4l-1.4,2.2h-0.1L297,0.4v3.3h-0.3V0c0.1,0,0.2,0,0.3,0l1.4,2.2l1.4-2.2h0.4v3.8h-0.3V0.4H300z"/>
	</g>
	<g>

			<rect x="258.3" y="17.9" transform="matrix(0.7071 -0.7071 0.7071 0.7071 60.8629 191.3999)" class="st0" width="6.4" height="8.6"/>
		<polygon class="st0" points="290.9,47 281.8,47 267.6,32.8 272.2,28.3 		"/>
		<polygon class="st0" points="262.2,37.4 257.8,33 282.1,8.7 290.8,8.7 		"/>
	</g>
</g>
</svg>
